name rise38.3101peak57.3503fall81.6963.mot
datacolumns 19
datarows 11
range 8.70830200000000 8.72497300000000
endheader
time	ground_force1_vx	ground_force1_vy	ground_force1_vz	ground_force1_px	ground_force1_py	ground_force1_pz	ground_force2_vx	ground_force2_vy	ground_force2_vz	ground_force2_px	ground_force2_py	ground_force2_pz	ground_torque1_x	ground_torque1_y	ground_torque1_z	ground_torque2_x	ground_torque2_y	ground_torque2_z	
8.70830200000000	-10.09950800000000	45.95575800000000	-17.21895300000000	0.33743300000000	0.00000000000000	0.05567900000000	-56.67332900000000	773.82570899999996	-49.86690900000000	0.11853000000000	0.00000000000000	-0.09851700000000	0.00000000000000	-12.81636300000000	0.00000000000000	0.00000000000000	-21.19016400000000	0.00000000000000	
8.70997300000000	-10.68304100000000	52.68923000000000	-18.96497600000000	0.34104000000000	0.00000000000000	0.05700600000000	-56.84355000000000	770.76924399999996	-49.33396400000000	0.11803600000000	0.00000000000000	-0.09842500000000	0.00000000000000	-14.21708800000000	0.00000000000000	0.00000000000000	-21.07421900000000	0.00000000000000	
8.71163600000000	-11.03887500000000	59.40524800000000	-20.50287700000000	0.34438300000000	0.00000000000000	0.05823600000000	-57.02659400000000	767.63707499999998	-48.78189500000000	0.11753800000000	0.00000000000000	-0.09832900000000	0.00000000000000	-15.48074800000000	0.00000000000000	0.00000000000000	-20.95994800000000	0.00000000000000	
8.71330200000000	-11.15411700000000	66.04139200000000	-21.80698900000000	0.34750100000000	0.00000000000000	0.05938100000000	-57.22269100000000	764.42865200000006	-48.21094500000000	0.11703300000000	0.00000000000000	-0.09822900000000	0.00000000000000	-16.58641300000000	0.00000000000000	0.00000000000000	-20.84744900000000	0.00000000000000	
8.71497400000000	-11.02685700000000	72.55963600000000	-22.86545800000000	0.35042400000000	0.00000000000000	0.06045100000000	-57.43201300000000	761.14326600000004	-47.62137900000000	0.11652400000000	0.00000000000000	-0.09812500000000	0.00000000000000	-17.52326700000000	0.00000000000000	0.00000000000000	-20.73680500000000	0.00000000000000	
8.71664000000000	-10.66499000000000	78.94586300000000	-23.67924200000000	0.35317800000000	0.00000000000000	0.06145400000000	-57.65466700000000	757.78003999999999	-47.01347600000000	0.11601100000000	0.00000000000000	-0.09801600000000	0.00000000000000	-18.29001700000000	0.00000000000000	0.00000000000000	-20.62808400000000	0.00000000000000	
8.71830700000000	-10.08442800000000	85.20748200000000	-24.26021800000000	0.35578500000000	0.00000000000000	0.06239600000000	-57.89069300000000	754.33793800000001	-46.38753500000000	0.11549400000000	0.00000000000000	-0.09790300000000	0.00000000000000	-18.89361100000000	0.00000000000000	0.00000000000000	-20.52134200000000	0.00000000000000	
8.71997500000000	-9.30695400000000	91.36967400000000	-24.62872300000000	0.35826200000000	0.00000000000000	0.06328500000000	-58.14006200000000	750.81575699999996	-45.74387200000000	0.11497400000000	0.00000000000000	-0.09778600000000	0.00000000000000	-19.34750300000000	0.00000000000000	0.00000000000000	-20.41661700000000	0.00000000000000	
8.72163600000000	-8.35796100000000	97.47080600000000	-24.81082700000000	0.36062600000000	0.00000000000000	0.06412400000000	-58.40267300000000	747.21213599999999	-45.08281900000000	0.11445000000000	0.00000000000000	-0.09766400000000	0.00000000000000	-19.66967700000000	0.00000000000000	0.00000000000000	-20.31393100000000	0.00000000000000	
8.72330500000000	-7.26427800000000	103.55755900000000	-24.83560400000000	0.36288900000000	0.00000000000000	0.06491900000000	-58.67834800000000	743.52555800000005	-44.40472700000000	0.11392500000000	0.00000000000000	-0.09753800000000	0.00000000000000	-19.88064500000000	0.00000000000000	0.00000000000000	-20.21329000000000	0.00000000000000	
8.72497300000000	-6.05224700000000	109.68018400000000	-24.73263000000000	0.36506300000000	0.00000000000000	0.06567200000000	-58.96683000000000	739.75434800000005	-43.70996600000000	0.11339900000000	0.00000000000000	-0.09740700000000	0.00000000000000	-20.00157700000000	0.00000000000000	0.00000000000000	-20.11468100000000	0.00000000000000	
